<svg xmlns="http://www.w3.org/2000/svg" xmlns:xlink="http://www.w3.org/1999/xlink" width="483.941" height="483.941" viewBox="0 0 483.941 483.941"><defs><clipPath id="a"><rect width="113.546" height="119.388" transform="translate(344.11 2700.741)" fill="none"/></clipPath><clipPath id="b"><rect width="59.329" height="31.599" transform="translate(460.308 2776.055)" fill="none"/></clipPath><clipPath id="c"><path d="M182.77,2769.242h0v0Z" fill="none"/></clipPath><clipPath id="d"><rect width="32.301" height="100.541" transform="translate(182.575 2678.837)" fill="none"/></clipPath><clipPath id="e"><rect width="4.234" height="3.067" transform="translate(209.282 2789.661)" fill="none"/></clipPath><clipPath id="f"><rect width="0.205" height="1.601" transform="translate(182.565 2767.639)" fill="none"/></clipPath><clipPath id="g"><rect width="28.872" height="10.624" transform="translate(209.705 2799.601)" fill="none"/></clipPath><clipPath id="h"><rect width="41.082" height="17.515" transform="translate(236.321 2806.958)" fill="none"/></clipPath><clipPath id="i"><rect width="68.021" height="25.679" transform="translate(258.281 2818.771)" fill="none"/></clipPath><clipPath id="j"><rect width="28.367" height="14.112" transform="translate(333.695 2814.75)" fill="none"/></clipPath><clipPath id="k"><rect width="27.449" height="63.7" transform="translate(360.973 2763.305)" fill="none"/></clipPath></defs><g transform="translate(16.971 16.97)"><rect width="318.198" height="318.198" transform="translate(0 225) rotate(-45)" fill="none" stroke="#54ada9" stroke-miterlimit="10" stroke-width="24"/><path d="M506.567,2784.094a.677.677,0,0,1-.256-.049l-20.934-8.273a.7.7,0,1,1,.512-1.3l20.934,8.274a.7.7,0,0,1-.256,1.346" transform="translate(-78 -2507.265)"/><path d="M513.641,2775.853a.705.705,0,0,1-.234-.041,311.483,311.483,0,0,1-33.935-14.461.7.7,0,1,1,.621-1.248,310.728,310.728,0,0,0,33.782,14.4.7.7,0,0,1-.234,1.354" transform="translate(-78 -2507.265)"/><path d="M515.422,2762.9a.684.684,0,0,1-.226-.038c-12.814-4.4-25.6-9.412-38-14.908a.7.7,0,0,1,.564-1.276c12.368,5.48,25.118,10.481,37.893,14.865a.7.7,0,0,1-.227,1.357" transform="translate(-78 -2507.265)"/><path d="M515.422,2750.457a.685.685,0,0,1-.256-.049c-14.89-5.864-26.448-10.927-42.38-17.98a.7.7,0,1,1,.564-1.275c15.917,7.046,27.461,12.1,42.328,17.958a.7.7,0,0,1-.256,1.346" transform="translate(-78 -2507.265)"/><path d="M511.717,2736.408a.707.707,0,0,1-.275-.056l-42.743-18.3a.7.7,0,0,1,.551-1.284l42.742,18.3a.7.7,0,0,1-.275,1.339" transform="translate(-78 -2507.265)"/><path d="M510.333,2722.976a.7.7,0,0,1-.294-.065l-46.423-21.585a.7.7,0,1,1,.589-1.264l46.422,21.584a.7.7,0,0,1-.294,1.33" transform="translate(-78 -2507.265)"/><path d="M505.81,2706.089a.676.676,0,0,1-.3-.067l-46.839-22.1a.7.7,0,1,1,.594-1.262l46.839,22.1a.7.7,0,0,1-.3,1.329" transform="translate(-78 -2507.265)"/><path d="M495.281,2683.989a.734.734,0,0,1-.262-.05c-11.636-4.7-23.5-9.229-35.274-13.45a.7.7,0,1,1,.472-1.313c11.786,4.227,23.671,8.758,35.326,13.468a.7.7,0,0,1-.262,1.345" transform="translate(-78 -2507.265)"/><path d="M494.349,2668.448a.718.718,0,0,1-.281-.059l-16.718-7.326a.7.7,0,0,1,.562-1.278l16.718,7.326a.7.7,0,0,1-.281,1.337" transform="translate(-78 -2507.265)"/><g transform="translate(-78 -2507.265)" opacity="0.129"><g clip-path="url(#a)"><path d="M451.975,2786.879a72.955,72.955,0,0,0-7.568,2.854,7.4,7.4,0,0,0-1.68.148,17.623,17.623,0,0,0-3.6,1.257c-1.311.466-2.545.909-3.809,1.478-.5.2-2.019.81-2.605.956-.183.057-.326.11-.451.159-.374.13-.75.258-1.133.356-.226.005-.453.01-.679,0a6.28,6.28,0,0,1-.748-.2l-.013-.008a17.462,17.462,0,0,1-1.5-1.7c-.62-.834.075.11.31.426a20.585,20.585,0,0,0-1.315-1.674c-.139-.172-.25-.312-.348-.435-.432-.623-.817-1.281-1.214-1.929a88.462,88.462,0,0,1-4.49-8.12c-2.895-5.891-5.557-11.908-8.643-17.694-1.788-3.939-3.316-8.028-5.559-11.72a127.158,127.158,0,0,0-22.307-27.405,95.35,95.35,0,0,0-20.567-16.462c-5.087-2.954-10.42-5.875-16.32-6.323-4.132-.984-5.134,5.439-.873,5.745,3.873.213,8.02,2.057,12.469,4.744a3.191,3.191,0,0,0,.688,3.426c4.116,3.758,8.861,6.64,13.15,10.164-.2-.14,2.184,1.974,2.667,2.507.5.508.986,1.032,1.462,1.565a2.067,2.067,0,0,0-.625,1.526c.285,1.866,2.281,4.066,3.185,5.816,4.716,7.538,10.261,14.541,14.265,22.543a109.887,109.887,0,0,1,10.92,36.577c.922,4.617,1.434,13.05,0,15.463a3.884,3.884,0,0,1-.395.418l-.282.179c-.185.064-.368.132-.55.206-.091.03-.18.068-.274.09l-.082.015c-.394.015-.843-.008-1.128-.027-.145-.026-.29-.048-.433-.081-1.6-.426-.735-.055-3.131-1.407-3.705-2.194-6.886,3.548-3.268,5.866,9.129,6.9,15.529,4.446,17.34-4.9.908-5.639.3-11.409-.646-17.016.268.849.541,1.7.806,2.546.522,3.334.964,6.48,1.389,9.3-.063.083-.138.152-.2.243a3.713,3.713,0,0,0,1.175,4.863,2.91,2.91,0,0,0,3.218,1.256,2.752,2.752,0,0,0,1.88-1.8c9.972-4.122,19.876-8.548,29.049-14.4a20.59,20.59,0,0,1,3.959-2.328,5.678,5.678,0,0,0,2.606-1.855,4.736,4.736,0,0,0,1.194-1.23c1.68-3.691-2.516-5.574-5.3-3.981"/></g></g><g transform="translate(-78 -2507.265)" opacity="0.129"><g clip-path="url(#b)"><path d="M515.787,2776.057a3.658,3.658,0,0,0-1.5.359c-2.317.722-4.4,2.273-6.68,3.151-4.039,2.056-5.61,2.437-11.026,5.165-9.313,5.2-24.791,10.3-33.114,13.954-5.472,1.735-3.263,10.239,2.313,8.808,8.726-2.96,16.968-7.244,25.387-11.017,4.441-2.155,12.884-5.34,19.889-8.962,3.265-1.8,7.347-3.922,7.753-4.978,2.047-2.447.039-6.573-3.019-6.48"/></g></g><g transform="translate(-78 -2507.265)" opacity="0.129"><g clip-path="url(#c)"><path d="M182.77,2769.243v0Z"/></g></g><g transform="translate(-78 -2507.265)" opacity="0.129"><g clip-path="url(#d)"><path d="M207.146,2681.832c-3.534,13.445-9.789,23.373-14.369,38.177a202.834,202.834,0,0,0-6.485,26.435c-1,3.963-1.775,7.979-2.557,11.995-.583,3.55-1.585,7.2-.965,10.8a5.777,5.777,0,0,0,7.574,4.069c1.906,2.1,3.925,4.091,5.959,6.069l0-.273q-.219-5.937.125-11.877a31.127,31.127,0,0,1-1.258-6.87c.775-4.375,1.772-8.709,2.269-13.133,2-14.254,5.846-28.122,10.241-41.741,1.326-4.065,2.346-8.242,4.04-12.164,1.191-3.537,3.156-7.143,3.158-10.934a3.93,3.93,0,0,0-7.729-.554"/></g></g><g transform="translate(-78 -2507.265)" opacity="0.129"><g clip-path="url(#e)"><path d="M211.153,2790.813a1.888,1.888,0,0,1-1.872,1.474,2.763,2.763,0,0,0,2.237.333,2.892,2.892,0,0,0,1.993-2.959c-.781.4-1.566.782-2.358,1.152"/></g></g><g transform="translate(-78 -2507.265)" opacity="0.129"><g clip-path="url(#f)"><path d="M182.77,2769.241q-.1-.8-.205-1.6a6.448,6.448,0,0,0,.205,1.6"/></g></g><g transform="translate(-78 -2507.265)" opacity="0.129"><g clip-path="url(#g)"><path d="M234.615,2801.724c-1.5,1.065-3.524.738-7.435.669-2.578-.258-5.908-.054-8.8-1.025-1.9-.46-3.689-2-5.681-1.738-3.727.349-4.076,6.228-.468,7.182a51.2,51.2,0,0,0,8.01,2.635c2.313.568,4.691,1.118,7.046.515a29.636,29.636,0,0,0,8.317-3.436c1.053-.714,2.5-1.3,2.9-2.647a2.29,2.29,0,0,0-3.886-2.155"/></g></g><g transform="translate(-78 -2507.265)" opacity="0.129"><g clip-path="url(#h)"><path d="M274.171,2807.053c-1.3.458-1.566,1.2-3.6,2.328-4.069,2.315-5.815,2.762-11.238,3.862-5.162,1.393-4.715,1.094-10.421,1.5a32.988,32.988,0,0,1-5.341-.24c-1.163-.2-2.329-.692-3.494-.439-4.684.484-5.119,7.742-.585,8.993,11.529,3.516,21.027,0,29.2-5.2a39.537,39.537,0,0,0,7.016-5.261c1.146-1.347,1.436-1.11,1.689-2.958a2.606,2.606,0,0,0-3.231-2.583"/></g></g><g transform="translate(-78 -2507.265)" opacity="0.129"><g clip-path="url(#i)"><path d="M322.6,2831.985c-2.417.358-1.821.672-3.1,1.087a26.015,26.015,0,0,1-4.789,1.685c-2.488.458-2.407.441-3.058.512a3.026,3.026,0,0,0,.524-2.326,3.24,3.24,0,0,0-3.154-2.923c-1.9.12-3.334,1.765-5.059,2.479a53.592,53.592,0,0,1-7.74,3.171,29.952,29.952,0,0,1-8.607,1.319c-1.652-.054-3.269-1.178-4.778-1.37a53.3,53.3,0,0,0,8.684-4.721,45.49,45.49,0,0,0,8.553-7.27,2.858,2.858,0,0,0,.923-2.1,2.826,2.826,0,0,0-1.3-2.383,2.568,2.568,0,0,0-3.185.431c.172-.138.615-.5.352-.314-1.293.841-2.588,1.679-3.9,2.487-7.538,5.087-17.47,8.057-23.934,9.108a20.6,20.6,0,0,1-4.612.207l-.255-.025-.169-.026c-1.162-.113-2.314-.723-3.479-.565-2.782.257-3.05,4.657-.349,5.37a30.623,30.623,0,0,0,7.489,2.014,35.351,35.351,0,0,0,8.169-.422,22.19,22.19,0,0,0,4.29-.819c-1.309,1.5-1.263,4.3.689,5.391,7.021,3.724,14.587,2.95,21.588-.378a26,26,0,0,0,3.693-1.9c.04,2.227,1.692,4.444,4.07,4.361,4.373-.587,9.093-.846,12.8-3.626,1.094-.884,2.538-1.637,3.021-3.077a3.862,3.862,0,0,0-3.375-5.369"/></g></g><g transform="translate(-78 -2507.265)" opacity="0.129"><g clip-path="url(#j)"><path d="M357.995,2814.87c-2.7,1.437-2.044,1.714-3.783,2.852-2.6,1.894-2.244,1.67-5.994,2.684-3.077.552-1.22.439-3.872.488-.309-.01-.617-.038-.925-.066-.329-.063-.764-.151-1.081-.238-2.233-.378-4.6-2.123-6.785-.733-2.889,1.641-2.282,6.563.918,7.375,2.934.91,5.963,1.809,9.053,1.6a21.255,21.255,0,0,0,10.375-3.818,50.536,50.536,0,0,0,4.248-3.583,4.3,4.3,0,0,0,1.911-3.309,3.279,3.279,0,0,0-4.065-3.25"/></g></g><g transform="translate(-78 -2507.265)" opacity="0.129"><g clip-path="url(#k)"><path d="M388.415,2803.693a3.867,3.867,0,0,0-2.683-3.784c-.09-.02-.169-.024-.255-.04a40.615,40.615,0,0,0-.692-9.508c-1.122-4.848-3.642-9.111-5.722-13.544a49.426,49.426,0,0,0-7.609-13,2.243,2.243,0,0,0-3.612,1.854c.12,1.611,1.525,2.75,2.229,4.122,3.944,6.043,5.278,10.557,7.158,17.786,2.3,7.6,2.712,11.28,2.033,19.124-.009.087-.017.163-.025.237-.061.356-.125.712-.2,1.067a5.547,5.547,0,0,1-.2.76c-.38.649-.784,1.282-1.2,1.9-.528.661-1.6,1.983-2.205,2.569q-.205.133-.4.247c-1.193.115-2.081.07-5.257-1.016-.9-.355-1.085-.459-.084-.008-1.6-.581-3.055-1.751-4.721-2.057-3.755-.715-5.588,4.975-2.273,6.909,1.169.626,2.456,1.239,3.587,1.756a4.486,4.486,0,0,0,2.108,3.174,9.477,9.477,0,0,0,.855.416,3.986,3.986,0,0,0,2.912,3.675,9.862,9.862,0,0,0,4.935.529,10.19,10.19,0,0,0,1.878-.714c1.66-.757,3.391-1.795,4.111-3.567a3.679,3.679,0,0,0,.183-2.613,4.174,4.174,0,0,0,1.076-2.5,21.3,21.3,0,0,0,3.448-7.675,35.122,35.122,0,0,0,.615-5.817c.006-.07.005-.137.007-.207,0-.042,0-.085,0-.128Z"/></g></g><path d="M170.8,2805.678a2.23,2.23,0,0,1-.394-.037c-11.917-2.274-24.23-4.626-36.386-8.105a140.987,140.987,0,0,0-14.031-3.873,139.362,139.362,0,0,1-16.181-4.584,2.093,2.093,0,1,1,1.448-3.927,136.361,136.361,0,0,0,15.708,4.441,144.641,144.641,0,0,1,14.323,3.955c11.2,3.2,22.727,5.462,33.93,7.6,4.864-20.627,11.469-40.774,17.861-60.275,3.808-11.613,7.745-23.62,11.334-35.762.015-.052.033-.1.052-.153,1.2-3.146,2.491-6.234,3.739-9.221,3.387-8.095,6.587-15.748,8.167-24.622a.606.606,0,0,0-.193-.183,1.517,1.517,0,0,1-.66-.133c-10.529-4.21-21.546-7.278-32.2-10.243-12.613-3.512-25.655-7.142-38.333-12.743a2.093,2.093,0,1,1,1.693-3.829c12.4,5.478,25.293,9.068,37.763,12.538,10.663,2.969,21.688,6.039,32.338,10.273a4.556,4.556,0,0,1,3.8,4.363,2.028,2.028,0,0,1-.031.357c-1.641,9.474-5.12,17.792-8.484,25.838-1.227,2.931-2.494,5.963-3.662,9.021-3.6,12.175-7.539,24.186-11.348,35.8-6.869,20.954-13.358,40.745-18.217,61.874a2.1,2.1,0,0,1-2.039,1.625m41.688-134.518h0Z" transform="translate(-78 -2507.265)"/><path d="M146.373,2799.217a2.05,2.05,0,0,1-.488-.058,2.094,2.094,0,0,1-1.55-2.522c11.091-46.428,26.7-95.776,42.84-135.39a2.093,2.093,0,1,1,3.878,1.578c-16.06,39.427-31.6,88.554-42.645,134.785a2.094,2.094,0,0,1-2.035,1.607" transform="translate(-78 -2507.265)"/><path d="M462.772,2811.576a2.089,2.089,0,0,1-2.017-1.534c-7.673-27.716-15.794-55.415-24.39-84.74-4.439-15.14-9.028-30.793-13.606-46.633a2.1,2.1,0,0,1,.977-2.4,401.044,401.044,0,0,1,61.154-28.258,2.093,2.093,0,1,1,1.427,3.935,396.871,396.871,0,0,0-59.076,27.149c4.423,15.291,8.853,30.4,13.141,45.028,8.374,28.565,16.3,55.588,23.8,82.6,17.873-6.714,35.626-14.376,52.806-22.792a2.093,2.093,0,0,1,1.842,3.759c-17.99,8.811-36.6,16.8-55.326,23.755a2.079,2.079,0,0,1-.729.13" transform="translate(-78 -2507.265)"/><path d="M486,2800.98a2.092,2.092,0,0,1-2.028-1.58c-11.266-44.483-24.108-89.142-38.172-132.734a2.094,2.094,0,0,1,3.985-1.287c14.09,43.679,26.958,88.424,38.245,132.994a2.094,2.094,0,0,1-1.515,2.543,2.125,2.125,0,0,1-.515.064" transform="translate(-78 -2507.265)"/><path d="M272.369,2740.674c-4.5,0-9.772-2.048-12.119-6.834-4.152-8.457,3.658-17.958,6.224-21.08,10.6-12.9,21.559-26.226,35.194-36.286,15.41-11.368,32.256-16.513,47.441-14.494,7.761,1.036,15.131,3.9,22.258,6.665,2.3.893,4.671,1.816,7.005,2.655a141.977,141.977,0,0,0,45.934,8.387,2.094,2.094,0,0,1-.032,4.187h-.033a146.119,146.119,0,0,1-47.285-8.636c-2.384-.857-4.784-1.789-7.1-2.69-6.9-2.679-14.03-5.45-21.3-6.417-14.1-1.879-29.87,2.99-44.4,13.712-13.218,9.75-24.009,22.879-34.445,35.574-5.831,7.093-7.7,12.517-5.7,16.579,1.658,3.38,5.727,4.692,9.01,4.471,3.794-.241,7.389-1.993,11.36-4.089q4-2.108,7.977-4.18c16.22-8.47,31.54-16.472,46.08-27.227a2.093,2.093,0,0,1,2.489,3.366c-14.8,10.948-30.263,19.024-46.631,27.572q-3.972,2.073-7.961,4.171c-4.243,2.24-8.434,4.273-13.049,4.566q-.45.029-.915.028" transform="translate(-78 -2507.265)"/><path d="M415.105,2814.5a2.094,2.094,0,0,1-.833-4.015c13.892-6.011,27.9-12.254,41.64-18.553a2.092,2.092,0,1,1,1.744,3.8c-13.765,6.314-27.8,12.569-41.721,18.592a2.094,2.094,0,0,1-.83.172" transform="translate(-78 -2507.265)"/><path d="M409.723,2822.628a10.222,10.222,0,0,1-1.145-.071c-6.473-.727-12.825-5.215-17.429-12.311a83.573,83.573,0,0,1-6.937-14.446c-.621-1.54-1.241-3.08-1.89-4.6a123.516,123.516,0,0,0-21.042-33.434,2.094,2.094,0,0,1,3.14-2.772,127.761,127.761,0,0,1,21.753,34.565c.66,1.548,1.291,3.113,1.922,4.677a80.533,80.533,0,0,0,6.565,13.733c3.921,6.041,9.164,9.842,14.385,10.431a2.576,2.576,0,0,0,1.485-.11c.263-.173.689-.81.62-3.131a130.021,130.021,0,0,0-20.733-66.458,121.06,121.06,0,0,0-51.583-44.131,2.093,2.093,0,1,1,1.693-3.829,125.289,125.289,0,0,1,53.392,45.668,134.256,134.256,0,0,1,21.414,68.625c.041,1.366.15,4.994-2.488,6.744a5.541,5.541,0,0,1-3.122.852" transform="translate(-78 -2507.265)"/><path d="M313.325,2844.829a15.594,15.594,0,0,1-10.039-3.388,2.093,2.093,0,0,1,2.554-3.317c3.533,2.719,6.512,2.59,9.131,2.471l.284-.012a15,15,0,0,0,10.389-5.044,8.02,8.02,0,0,0,2.077-6.132,2.075,2.075,0,0,1-.018-.273,81.48,81.48,0,0,0-1.066-12.066,2.092,2.092,0,0,1,3.654-1.678c2.915,3.379,5.929,6.875,9.6,9.181,3.783,2.372,7.974,3.051,11.2,1.809,4.511-1.73,9.126-9.994,8.1-14.495a2.093,2.093,0,0,1,4.08-.935c1.5,6.548-4.189,16.849-10.676,19.339-4.523,1.735-9.962.943-14.928-2.172a33.491,33.491,0,0,1-6.064-5.017c.173,1.908.287,3.91.286,5.915a12.006,12.006,0,0,1-3.044,9.223,19.11,19.11,0,0,1-13.414,6.529l-.275.01c-.558.025-1.171.052-1.832.052" transform="translate(-78 -2507.265)"/><path d="M376.849,2828.254a12.508,12.508,0,0,1-4.688-1.07c-7.348-2.992-11.229-11.353-14.982-19.439-2.593-5.586-5.273-11.362-8.923-14.771a2.093,2.093,0,1,1,2.859-3.058c4.244,3.965,7.1,10.117,9.861,16.067,3.569,7.689,6.94,14.953,12.763,17.323,2.57,1.049,5.484,2.238,9.6-5.052a16.731,16.731,0,0,0,1.611-7.045c.418-6.322-1.2-12.837-2.758-19.139-.239-.963-.478-1.925-.708-2.882a2.093,2.093,0,0,1,4.07-.981c.228.95.464,1.9.7,2.857,1.638,6.611,3.333,13.448,2.873,20.42a20.376,20.376,0,0,1-2.142,8.828c-3.463,6.132-6.918,7.942-10.135,7.942" transform="translate(-78 -2507.265)"/><path d="M251.35,2827.027c-.171,0-.342,0-.512-.005-6.167-.157-13.43-4-15.381-11.051a17.488,17.488,0,0,1-.371-6.853,18.9,18.9,0,0,1-13.373,2.574,18.434,18.434,0,0,1-14.442-14.756c-.374-2.372.049-4.211,1.259-5.466a2.094,2.094,0,0,1,3.015,2.906c-.141.146-.327.711-.139,1.907a14.131,14.131,0,0,0,11.081,11.3,14.635,14.635,0,0,0,14.348-5.679,2.085,2.085,0,0,1,2.387-.753,16.29,16.29,0,0,1,1.684-.782,80.713,80.713,0,0,1,24.149-5.8c8.4-.679,11.874,2.381,13.316,5.068a11.225,11.225,0,0,1,1.023,6.728,17.822,17.822,0,0,1-3.9,9.16,27.238,27.238,0,0,1-7.224,5.752c-4.483,2.692-10.429,5.751-16.92,5.751M240.023,2805.7c-.852,3.422-1.3,6.375-.533,9.155,1.409,5.085,6.827,7.866,11.453,7.981,5.615.156,11.056-2.676,15.173-5.148a23.565,23.565,0,0,0,6.154-4.834,13.584,13.584,0,0,0,2.968-6.983,7.489,7.489,0,0,0-.555-4.254c-1.545-2.875-5.9-3.153-9.29-2.875a76.5,76.5,0,0,0-22.9,5.5,7.2,7.2,0,0,0-2.472,1.461" transform="translate(-78 -2507.265)"/><path d="M270.274,2840.721a15.8,15.8,0,0,1-8.356-2.259,15.625,15.625,0,0,1-7.061-14.38,2.093,2.093,0,0,1,4.171.357,11.511,11.511,0,0,0,5.091,10.463c3.206,1.977,7.576,2.172,11.992.523,4.184-1.561,7.848-4.414,11.542-7.447,5.268-4.325,10.2-9.17,10.657-15.282a3.093,3.093,0,0,0-.078-1.2,2.559,2.559,0,0,0-1.03-.961c-3.7-2.325-8.125-1.752-10.433-1.206-3.553.844-6.465,2.425-9.838,4.253l-.582.316a2.093,2.093,0,1,1-1.992-3.682l.578-.313a43.12,43.12,0,0,1,10.866-4.646c5.09-1.209,9.931-.594,13.631,1.735a6.437,6.437,0,0,1,2.669,2.905,6.727,6.727,0,0,1,.384,3.107c-.568,7.688-6.188,13.3-12.174,18.212-3.822,3.137-7.953,6.349-12.737,8.134a20.936,20.936,0,0,1-7.3,1.374" transform="translate(-78 -2507.265)"/><path d="M292.794,2846.479a17.556,17.556,0,0,1-8.092-1.979c-2.9-1.51-5.9-4.519-5.669-8.439a2.093,2.093,0,1,1,4.178.251c-.116,1.925,1.773,3.615,3.426,4.477a13.315,13.315,0,0,0,8.421,1.306c4.547-.809,8.493-3.95,11.756-6.916,3.693-3.355,5.271-6.136,4.967-8.753-.349-3.015-3.445-5.05-6.113-5.205-2.691-.142-5.457,1.02-8.721,3.7a2.093,2.093,0,0,1-2.654-3.238c2.6-2.128,6.6-4.953,11.618-4.639,4.453.259,9.422,3.66,10.029,8.9.62,5.351-3.3,9.6-6.311,12.334-3.487,3.17-8.21,6.936-13.84,7.938a17.1,17.1,0,0,1-2.995.263" transform="translate(-78 -2507.265)"/><path d="M238.742,2803.9a2.093,2.093,0,0,1-2.062-1.752c-.681-4.123-4.978-6.593-7.479-7.7-7.3-3.229-13.631-3.124-18.829.3a2.1,2.1,0,0,1-2.878-.563c-7.362-10.726-16.545-18.656-27.29-23.568a2.094,2.094,0,1,1,1.742-3.808,70.33,70.33,0,0,1,27.872,23.4c6.086-3.231,13.163-3.1,21.076.4,5.651,2.5,9.173,6.352,9.915,10.846a2.094,2.094,0,0,1-2.067,2.434" transform="translate(-78 -2507.265)"/><path d="M210.861,2680.539a2.093,2.093,0,0,1-.492-4.128c21.338-5.176,40.953-12.29,57.326-18.566l1.45-.557c6.247-2.405,12.708-4.893,19.528-5.681,15.717-1.819,30.17,5.254,42.921,11.493a2.093,2.093,0,1,1-1.84,3.761c-12.234-5.987-26.091-12.773-40.6-11.095-6.292.728-12.5,3.118-18.5,5.429l-1.456.558c-16.5,6.325-36.271,13.494-57.839,18.727a2.1,2.1,0,0,1-.494.059" transform="translate(-78 -2507.265)"/><path d="M506.567,2784.094a.677.677,0,0,1-.256-.049l-20.934-8.273a.7.7,0,1,1,.512-1.3l20.934,8.274a.7.7,0,0,1-.256,1.346" transform="translate(-78 -2507.265)"/><path d="M513.641,2775.853a.705.705,0,0,1-.234-.041,311.483,311.483,0,0,1-33.935-14.461.7.7,0,1,1,.621-1.248,310.728,310.728,0,0,0,33.782,14.4.7.7,0,0,1-.234,1.354" transform="translate(-78 -2507.265)"/><path d="M515.422,2762.9a.684.684,0,0,1-.226-.038c-12.814-4.4-25.6-9.412-38-14.908a.7.7,0,0,1,.564-1.276c12.368,5.48,25.118,10.481,37.893,14.865a.7.7,0,0,1-.227,1.357" transform="translate(-78 -2507.265)"/><path d="M515.422,2750.457a.685.685,0,0,1-.256-.049c-14.89-5.864-26.448-10.927-42.38-17.98a.7.7,0,1,1,.564-1.275c15.917,7.046,27.461,12.1,42.328,17.958a.7.7,0,0,1-.256,1.346" transform="translate(-78 -2507.265)"/><path d="M511.717,2736.408a.707.707,0,0,1-.275-.056l-42.743-18.3a.7.7,0,0,1,.551-1.284l42.742,18.3a.7.7,0,0,1-.275,1.339" transform="translate(-78 -2507.265)"/><path d="M510.333,2722.976a.7.7,0,0,1-.294-.065l-46.423-21.585a.7.7,0,1,1,.589-1.264l46.422,21.584a.7.7,0,0,1-.294,1.33" transform="translate(-78 -2507.265)"/><path d="M505.81,2706.089a.676.676,0,0,1-.3-.067l-46.839-22.1a.7.7,0,1,1,.594-1.262l46.839,22.1a.7.7,0,0,1-.3,1.329" transform="translate(-78 -2507.265)"/><path d="M495.281,2683.989a.734.734,0,0,1-.262-.05c-11.636-4.7-23.5-9.229-35.274-13.45a.7.7,0,1,1,.472-1.313c11.786,4.227,23.671,8.758,35.326,13.468a.7.7,0,0,1-.262,1.345" transform="translate(-78 -2507.265)"/><path d="M494.349,2668.448a.718.718,0,0,1-.281-.059l-16.718-7.326a.7.7,0,0,1,.562-1.278l16.718,7.326a.7.7,0,0,1-.281,1.337" transform="translate(-78 -2507.265)"/><g transform="translate(-78 -2507.265)" opacity="0.129"><g clip-path="url(#c)"><path d="M182.77,2769.243v0Z"/></g></g><g transform="translate(-78 -2507.265)" opacity="0.129"><g clip-path="url(#d)"><path d="M207.146,2681.832c-3.534,13.445-9.789,23.373-14.369,38.177a202.834,202.834,0,0,0-6.485,26.435c-1,3.963-1.775,7.979-2.557,11.995-.583,3.55-1.585,7.2-.965,10.8a5.777,5.777,0,0,0,7.574,4.069c1.906,2.1,3.925,4.091,5.959,6.069l0-.273q-.219-5.937.125-11.877a31.127,31.127,0,0,1-1.258-6.87c.775-4.375,1.772-8.709,2.269-13.133,2-14.254,5.846-28.122,10.241-41.741,1.326-4.065,2.346-8.242,4.04-12.164,1.191-3.537,3.156-7.143,3.158-10.934a3.93,3.93,0,0,0-7.729-.554"/></g></g><g transform="translate(-78 -2507.265)" opacity="0.129"><g clip-path="url(#e)"><path d="M211.153,2790.813a1.888,1.888,0,0,1-1.872,1.474,2.763,2.763,0,0,0,2.237.333,2.892,2.892,0,0,0,1.993-2.959c-.781.4-1.566.782-2.358,1.152"/></g></g><g transform="translate(-78 -2507.265)" opacity="0.129"><g clip-path="url(#f)"><path d="M182.77,2769.241q-.1-.8-.205-1.6a6.448,6.448,0,0,0,.205,1.6"/></g></g><path d="M170.8,2805.678a2.23,2.23,0,0,1-.394-.037c-11.917-2.274-24.23-4.626-36.386-8.105a140.987,140.987,0,0,0-14.031-3.873,139.362,139.362,0,0,1-16.181-4.584,2.093,2.093,0,1,1,1.448-3.927,136.361,136.361,0,0,0,15.708,4.441,144.641,144.641,0,0,1,14.323,3.955c11.2,3.2,22.727,5.462,33.93,7.6,4.864-20.627,11.469-40.774,17.861-60.275,3.808-11.613,7.745-23.62,11.334-35.762.015-.052.033-.1.052-.153,1.2-3.146,2.491-6.234,3.739-9.221,3.387-8.095,6.587-15.748,8.167-24.622a.606.606,0,0,0-.193-.183,1.517,1.517,0,0,1-.66-.133c-10.529-4.21-21.546-7.278-32.2-10.243-12.613-3.512-25.655-7.142-38.333-12.743a2.093,2.093,0,1,1,1.693-3.829c12.4,5.478,25.293,9.068,37.763,12.538,10.663,2.969,21.688,6.039,32.338,10.273a4.556,4.556,0,0,1,3.8,4.363,2.028,2.028,0,0,1-.031.357c-1.641,9.474-5.12,17.792-8.484,25.838-1.227,2.931-2.494,5.963-3.662,9.021-3.6,12.175-7.539,24.186-11.348,35.8-6.869,20.954-13.358,40.745-18.217,61.874a2.1,2.1,0,0,1-2.039,1.625m41.688-134.518h0Z" transform="translate(-78 -2507.265)"/><path d="M146.373,2799.217a2.05,2.05,0,0,1-.488-.058,2.094,2.094,0,0,1-1.55-2.522c11.091-46.428,26.7-95.776,42.84-135.39a2.093,2.093,0,1,1,3.878,1.578c-16.06,39.427-31.6,88.554-42.645,134.785a2.094,2.094,0,0,1-2.035,1.607" transform="translate(-78 -2507.265)"/><path d="M415.105,2814.5a2.094,2.094,0,0,1-.833-4.015c13.892-6.011,27.9-12.254,41.64-18.553a2.092,2.092,0,1,1,1.744,3.8c-13.765,6.314-27.8,12.569-41.721,18.592a2.094,2.094,0,0,1-.83.172" transform="translate(-78 -2507.265)"/><path d="M380.165,2657.985h-.021a2.094,2.094,0,0,1-2.072-2.115l.6-58.786a2.093,2.093,0,0,1,2.093-2.071h.021a2.094,2.094,0,0,1,2.072,2.115l-.6,58.786a2.093,2.093,0,0,1-2.093,2.071" transform="translate(-78 -2507.265)" fill="#e68f1b"/><path d="M368.389,2614.131a2.094,2.094,0,0,1-1.589-3.454,111.944,111.944,0,0,0,12.53-17.978,2.24,2.24,0,0,1,1.863-1.07,2.1,2.1,0,0,1,1.825,1.135l.4.774c3.431,6.67,5.7,11.075,10.248,16.938a2.093,2.093,0,1,1-3.306,2.567,89.12,89.12,0,0,1-9.313-14.971,116,116,0,0,1-11.064,15.326,2.091,2.091,0,0,1-1.592.733" transform="translate(-78 -2507.265)" fill="#e68f1b"/><path d="M326.267,2639.991h-.022a2.092,2.092,0,0,1-2.071-2.115l.6-58.786a2.093,2.093,0,0,1,2.093-2.071h.022a2.092,2.092,0,0,1,2.071,2.115l-.6,58.786a2.093,2.093,0,0,1-2.093,2.071" transform="translate(-78 -2507.265)" fill="#e68f1b"/><path d="M314.492,2596.137a2.093,2.093,0,0,1-1.59-3.454,112.068,112.068,0,0,0,12.531-17.978,2.094,2.094,0,0,1,3.688.065l.384.75c3.436,6.679,5.7,11.091,10.26,16.96a2.093,2.093,0,0,1-3.306,2.568,89.174,89.174,0,0,1-9.311-14.97,116.4,116.4,0,0,1-11.063,15.326,2.1,2.1,0,0,1-1.593.733" transform="translate(-78 -2507.265)" fill="#e68f1b"/><path d="M264.964,2647.755h-.021a2.093,2.093,0,0,1-2.072-2.115l.6-58.786a2.094,2.094,0,0,1,2.094-2.071h.021a2.094,2.094,0,0,1,2.072,2.115l-.6,58.786a2.093,2.093,0,0,1-2.093,2.071" transform="translate(-78 -2507.265)" fill="#e68f1b"/><path d="M253.187,2603.9a2.093,2.093,0,0,1-1.589-3.453,112.088,112.088,0,0,0,12.531-17.977,2.2,2.2,0,0,1,1.863-1.07,2.1,2.1,0,0,1,1.824,1.135l.394.767c3.433,6.671,5.7,11.078,10.252,16.943a2.093,2.093,0,0,1-3.306,2.568,89.269,89.269,0,0,1-9.313-14.97,116.013,116.013,0,0,1-11.064,15.324,2.086,2.086,0,0,1-1.592.733" transform="translate(-78 -2507.265)" fill="#e68f1b"/></g></svg>