<svg xmlns="http://www.w3.org/2000/svg" xmlns:xlink="http://www.w3.org/1999/xlink" width="302" height="165" viewBox="0 0 302 165"><defs><clipPath id="a"><rect width="302" height="165" transform="translate(778 3057.264)" fill="none"/></clipPath><clipPath id="b"><rect width="183.31" height="123.678" transform="translate(1008 3065.948)" fill="none"/></clipPath><clipPath id="c"><rect width="179.295" height="205.914" transform="translate(856.365 2967.156)" fill="none"/></clipPath><clipPath id="d"><rect width="144.677" height="144.672" transform="translate(969.963 3003.389)" fill="none"/></clipPath><clipPath id="e"><path d="M1114.636,3075.725a72.336,72.336,0,1,1-72.337-72.336,72.337,72.337,0,0,1,72.337,72.336" fill="none"/></clipPath><radialGradient id="f" cx="0.5" cy="0.5" r="0.5" gradientTransform="matrix(1, 0, 0, -1, 0, -42.131)" gradientUnits="objectBoundingBox"><stop offset="0" stop-color="#007b80"/><stop offset="0.358" stop-color="#007b80"/><stop offset="0.375" stop-color="#14858a"/><stop offset="0.419" stop-color="#459ea2"/><stop offset="0.467" stop-color="#71b5b8"/><stop offset="0.518" stop-color="#97c9cb"/><stop offset="0.571" stop-color="#b7dadb"/><stop offset="0.629" stop-color="#d1e7e8"/><stop offset="0.692" stop-color="#e6f2f2"/><stop offset="0.764" stop-color="#f4f9f9"/><stop offset="0.852" stop-color="#fcfdfd"/><stop offset="1" stop-color="#fff"/></radialGradient><clipPath id="g"><rect width="36.042" height="41.617" transform="translate(919.251 3048.688)" fill="none"/></clipPath><clipPath id="h"><rect width="128.1" height="147.918" transform="translate(863.247 3058.833)" fill="none"/></clipPath><clipPath id="i"><rect width="83.047" height="95.894" transform="translate(911.705 3116.801)" fill="none"/></clipPath></defs><g transform="translate(-778 -3057.264)"><g clip-path="url(#a)"><g opacity="0.5"><g clip-path="url(#b)"><path d="M1008,3189.625l183.311-105.835-30.906-17.843L1008,3153.938Z" fill="#ddd"/></g></g><g opacity="0.6"><g clip-path="url(#c)"><path d="M1035.662,3032.274v-1.848H926.074l-3.2,1.848Zm0,38.4v-1.848h-176.1l-3.2,1.848Zm0-44.8v-1.847h-98.5l-3.2,1.847Zm0,25.6v-1.847H892.819l-3.2,1.847Zm0,12.8v-1.847H870.65l-3.2,1.847Zm0-6.4v-1.847H881.734l-3.2,1.847Zm0-38.4v-1.847H948.244l-3.2,1.847Zm0,25.6v-1.847H903.9l-3.2,1.847Zm0-6.4v-1.848H914.989l-3.2,1.848Zm0-64v-1.847h-9.824l-3.2,1.847Zm0,6.4v-1.847h-20.909l-3.2,1.847Zm-1.939-12.8h1.939v-1.12Zm1.939,25.6v-1.848H992.584l-3.2,1.848Zm0,6.4v-1.848H981.5l-3.2,1.848Zm0-12.8v-1.847h-31.994l-3.2,1.847Zm0,25.6v-1.847H959.328l-3.2,1.847Zm0-6.4v-1.848H970.413l-3.2,1.848Zm0,147.2v-1.848H994.446l3.2,1.848Zm0-12.8v-1.848H972.277l3.2,1.848Zm0-64v-1.847H861.429l3.2,1.847Zm0,51.2v-1.847H950.107l3.2,1.847Zm0,6.4v-1.847h-74.47l3.2,1.847Zm0,38.4v-1.848H1027.7l3.2,1.848Zm0-12.8v-1.847h-30.131l3.2,1.847Zm0,6.4v-1.848h-19.045l3.2,1.848Zm0-19.2v-1.847h-52.3l3.2,1.847Zm0-57.6v-1.847H883.6l3.2,1.847Zm0-6.4v-1.847H872.513l3.2,1.847Zm0,38.4v-1.847h-96.64l3.2,1.847Zm0-25.6v-1.847H894.683l3.2,1.847Zm0,6.4v-1.848H905.768l3.2,1.848Zm0,12.8v-1.847H927.937l3.2,1.847Zm0-6.4v-1.848H916.852l3.2,1.848Z" fill="#ddd"/></g></g><g opacity="0.66" style="mix-blend-mode:multiply;isolation:isolate"><g clip-path="url(#d)"><g clip-path="url(#e)"><rect width="144.673" height="144.672" transform="translate(969.963 3003.389)" fill="url(#f)"/></g></g></g><path d="M1130.161,3066l-128.1-73.958v147.917Z" fill="#e68f1b"/><g style="mix-blend-mode:overlay;isolation:isolate"><g clip-path="url(#g)"><path d="M955.293,3069.5l-36.042-20.809V3090.3Z" fill="#004e59"/></g></g><g style="mix-blend-mode:overlay;isolation:isolate"><g clip-path="url(#h)"><path d="M863.247,3132.791l128.1,73.958V3058.833Z" fill="#004e59"/></g></g><g opacity="0.96"><g clip-path="url(#i)"><path d="M994.752,3164.747,911.705,3116.8v95.894Z" fill="#e68f1b"/></g></g><path d="M1028.017,3019.073a.489.489,0,0,1-.252-.068l-56.5-33a.5.5,0,1,1,.5-.864l56.5,33a.5.5,0,0,1-.252.932" fill="#fff"/><path d="M926.1,3106.99a.5.5,0,0,1-.251-.933l70.75-41a.5.5,0,0,1,.5.866l-70.75,41a.5.5,0,0,1-.251.067" fill="#fff"/></g></g></svg>