<svg xmlns="http://www.w3.org/2000/svg" xmlns:xlink="http://www.w3.org/1999/xlink" width="305" height="222" viewBox="0 0 305 222"><defs><clipPath id="a"><rect width="305" height="222" transform="translate(0 1775.265)" fill="none"/></clipPath></defs><g transform="translate(0 -1775.265)"><g clip-path="url(#a)"><path d="M186.722,1978.815l-8.716,21.621h35.833Z" fill="none" stroke="#7b8a7c" stroke-miterlimit="10" stroke-width="1.643"/><path d="M78.678,1997.148l62.4-41.729,3.487,36.24-40.052,10.847" fill="none" stroke="#e68f1b" stroke-miterlimit="10" stroke-width="0.822"/><path d="M119.435,1982.472,58.479,1939.55-.313,1986.339v10.81h82.6Z" fill="#007b80"/><path d="M126.649,1943.653l-48.527,9.728,22.662,15.957Z" fill="#004e59"/><path d="M114.025,1935.222l1.443-26.691-16.953-5.411-11.9,29.938Z" fill="#8e9f80"/><path d="M24.238,1966.8l49.672-94.472L-.313,1943.653v42.685Z" fill="#e68f1b"/><line x1="14.092" y2="67.058" transform="translate(46.843 1892.188)" fill="#e68f1b"/><path d="M68.224,1894.132l22.838-24.783,28.373,13.606-38.091,22.353Z" fill="#004e59"/><path d="M53.889,1861.088,92.52,1857.2l8.52-22.838-24.555-2.916Z" fill="none" stroke="#fff" stroke-miterlimit="10" stroke-width="1.643"/></g></g></svg>