<svg xmlns="http://www.w3.org/2000/svg" xmlns:xlink="http://www.w3.org/1999/xlink" width="163" height="91" viewBox="0 0 163 91"><defs><clipPath id="a"><rect width="163" height="91" transform="translate(0 3148.264)" fill="none"/></clipPath><clipPath id="b"><rect width="179.297" height="148.316" transform="translate(-44.662 3255.057)" fill="none"/></clipPath><clipPath id="c"><rect width="36.041" height="41.617" transform="translate(35.707 3280.224)" fill="none"/></clipPath><clipPath id="d"><rect width="128.1" height="147.918" transform="translate(-0.347 3163.779)" fill="none"/></clipPath><clipPath id="e"><rect width="83.047" height="95.894" transform="translate(-3.752 3157.834)" fill="none"/></clipPath></defs><g transform="translate(0 -3148.264)"><g clip-path="url(#a)"><g opacity="0.6"><g clip-path="url(#b)"><path d="M-44.662,3338.255v1.848H64.926l3.2-1.848Zm0-38.4v1.848h176.1l3.2-1.848Zm0,44.8v1.847h98.5l3.2-1.847Zm0-25.6v1.847H98.18l3.2-1.847Zm0-12.8v1.847H120.35l3.2-1.847Zm0,6.4v1.847H109.265l3.2-1.847Zm0,38.4v1.847H42.755l3.2-1.847Zm0-25.6v1.847H87.1l3.2-1.847Zm0,6.4v1.848H76.01l3.2-1.848Zm0,64v1.847h9.824l3.2-1.847Zm0-6.4v1.847h20.909l3.2-1.847Zm1.939,12.8h-1.939v1.12Zm-1.939-25.6v1.848H-1.584l3.2-1.848Zm0-6.4v1.848H9.5l3.2-1.848Zm0,12.8v1.847h31.994l3.2-1.847Zm0-25.6v1.847H31.671l3.2-1.847Zm0,6.4v1.848H20.586l3.2-1.848Zm0-70.4v1.847H129.571l-3.2-1.847Zm0-12.8v1.847H107.4l-3.2-1.847Zm0,6.4v1.847H118.486l-3.2-1.847Zm0-12.8v1.847H96.317l-3.2-1.847Zm0-6.4v1.848H85.232l-3.2-1.848Zm0-12.8v1.847H63.062l-3.2-1.847Zm0,6.4v1.848H74.147l-3.2-1.848Z" fill="#ddd"/></g></g><g style="mix-blend-mode:overlay;isolation:isolate"><g clip-path="url(#c)"><path d="M35.707,3301.033l36.042,20.809v-41.618Z" fill="#004e59"/></g></g><g style="mix-blend-mode:overlay;isolation:isolate"><g clip-path="url(#d)"><path d="M127.753,3237.738-.347,3163.78V3311.7Z" fill="#004e59"/></g></g><g opacity="0.96"><g clip-path="url(#e)"><path d="M-3.752,3205.781l83.047,47.947v-95.894Z" fill="#e68f1b"/></g></g><path d="M-37.017,3351.456a.491.491,0,0,1,.252.068l56.5,33a.5.5,0,0,1-.5.864l-56.5-33a.5.5,0,0,1-.181-.684.5.5,0,0,1,.432-.248" fill="#fff"/><path d="M64.9,3263.539a.5.5,0,0,1,.251.933l-70.75,41a.5.5,0,0,1-.684-.182.5.5,0,0,1,.183-.684l70.75-41a.492.492,0,0,1,.25-.067" fill="#fff"/></g></g></svg>