<svg xmlns="http://www.w3.org/2000/svg" width="91.142" height="91.469" viewBox="0 0 91.142 91.469"><path d="M857.19,1109.149c.085-1.187.175-2.312.245-3.44q.774-12.558,1.542-25.113c.072-1.166.186-2.332.187-3.5a1.5,1.5,0,0,0-.51-1.015,24.561,24.561,0,0,0-2.073-1.413c-.138.342-.261.635-.375.932a13.284,13.284,0,0,1-11.9,8.457c-1.367.029-1.907-.487-1.913-1.852-.006-1.809,0-3.618,0-5.411-3.937-.783-5.959-2.924-5.885-6.172.069-3.083,2.191-5.206,5.885-5.812,0-1.76,0-3.536,0-5.312,0-1.542.514-2.082,2.067-1.959a13.106,13.106,0,0,1,11.732,8.417c.12.277.217.565.372.974,1.11-.743,2.176-1.434,3.2-2.178a1.083,1.083,0,0,0,.257-.736q.68-10.806,1.337-21.618c.053-.857.1-1.717.174-2.574a1.456,1.456,0,0,1,1.548-1.48c.915-.027,1.832-.006,2.867-.006,0-.995.034-1.939-.026-2.875-.014-.213-.32-.466-.55-.6a4.442,4.442,0,1,1,4.111-.038.914.914,0,0,0-.6.977c.044.8.011,1.594.011,2.532.878,0,1.723-.005,2.567,0,1.293.01,1.785.477,1.865,1.738.169,2.667.325,5.336.54,8a1.61,1.61,0,0,0,.57,1.009c.72.567,1.516,1.038,2.356,1.6.132-.317.252-.588.357-.866a13.283,13.283,0,0,1,11.944-8.52c1.355-.023,1.883.5,1.888,1.879.006,1.807,0,3.616,0,5.408,3.839.637,5.972,2.9,5.884,6.175-.081,3.078-2.35,5.341-5.884,5.75v3.99c0,.307-.018.617,0,.922.164,2.363-.918,2.591-2.649,2.367a13.166,13.166,0,0,1-11.327-8.843c-.053-.138-.119-.271-.215-.489a19.05,19.05,0,0,0-1.836,1.25,1.279,1.279,0,0,0-.332.936c.179,3.314.394,6.625.6,9.936q.609,9.7,1.216,19.408.574,9.244,1.144,18.49a5.706,5.706,0,0,0,.125.671c2.329,0,4.627,0,6.926,0,1.438,0,1.921.491,1.925,1.94.005,1.722.012,3.443,0,5.163-.009,1.2-.548,1.743-1.753,1.743q-17.392.009-34.785,0c-1.2,0-1.732-.546-1.741-1.754q-.018-2.672,0-5.346c.009-1.2.543-1.737,1.749-1.744,2.358-.011,4.716,0,7.154,0M888,1064.687v-20.222c-4.257-.07-8.639,4.786-8.792,9.667A10.167,10.167,0,0,0,888,1064.687m-42.621-3.995v20.223c3.85-.241,8.894-4.106,8.793-10.362-.081-4.988-4.436-9.894-8.793-9.861m22.085,16.981a3.97,3.97,0,0,0-.3.364c-1.691,2.814-3.392,5.623-5.042,8.461a1.2,1.2,0,0,0,.1,1.028c1.039,1.595,2.132,3.154,3.209,4.721.637.926,1.277,1.85,1.951,2.825a3.486,3.486,0,0,0,.316-.334c1.67-2.427,3.352-4.847,4.983-7.3a1.19,1.19,0,0,0-.008-1.034c-1.321-2.284-2.692-4.54-4.048-6.8-.372-.621-.748-1.238-1.165-1.928m-16.2,37.313h32.278v-2.837H851.27Zm16.154-60.543c-1.439,3.506-2.775,6.733-4.069,9.976a1.229,1.229,0,0,0,.173.9c1.066,1.829,2.163,3.641,3.252,5.455.2.325.4.645.657,1.061,1.4-2.331,2.718-4.506,4-6.706a1.217,1.217,0,0,0,0-.921c-.614-1.57-1.274-3.122-1.917-4.682-.663-1.606-1.322-3.212-2.092-5.084m-5.993,54.653h11.995l-6-8.738c-2.026,2.951-3.974,5.789-6,8.738m-1.017-4c.155-.072.224-.081.251-.12,1.567-2.268,3.142-4.531,4.676-6.823a.973.973,0,0,0-.042-.86c-.85-1.311-1.75-2.588-2.636-3.876q-.606-.883-1.218-1.763l-.2.071c-.276,4.439-.553,8.876-.832,13.371m13.836-.008.189-.06L873.6,1091.7c-1.538,1.9-2.873,3.836-4.185,5.787a.626.626,0,0,0,.023.56c1.592,2.352,3.2,4.693,4.81,7.035m-12.318-24.4.181.048c1.129-1.884,2.265-3.764,3.373-5.66a.776.776,0,0,0,.016-.662c-.885-1.524-1.8-3.028-2.712-4.538l-.176.039q-.34,5.387-.682,10.773m10.31-10.77c-.065-.008-.131-.014-.2-.021a31.713,31.713,0,0,1-1.953,3.195,2.4,2.4,0,0,0,.011,3.315c1,1.367,1.777,2.893,2.65,4.35l.165-.066q-.34-5.388-.678-10.773m18.788-12.421a2.971,2.971,0,0,0,2.9-3.043,2.932,2.932,0,0,0-2.9-2.779ZM842.368,1067.9a2.885,2.885,0,0,0-2.913,3.12,2.778,2.778,0,0,0,2.913,2.611Zm27.253-26.56h-4.39l2.2,5.341c.795-1.938,1.477-3.6,2.191-5.341m-6.121,14.295.219.049c.663-1.6,1.331-3.2,1.982-4.805a.769.769,0,0,0,.03-.529c-.481-1.213-.987-2.414-1.486-3.618l-.194.032q-.276,4.436-.551,8.871m7.3-8.864-.216.013a11.552,11.552,0,0,1-.68,1.591,4,4,0,0,0-.012,4.377,27.358,27.358,0,0,1,1.255,2.958l.2-.064q-.276-4.437-.551-8.875m-11.352,26.257c.1-1.579.189-3.022.291-4.655-.9.594-1.621,1.042-2.309,1.535a1.275,1.275,0,0,0,.043,1.807c.594.422,1.212.809,1.975,1.313m9.443-42.064a1.466,1.466,0,1,0-1.441,1.471,1.477,1.477,0,0,0,1.441-1.471m5.48,25.686c.705-.9,1.986-.806,1.9-2.144s-1.407-1.217-2.142-1.86c.074,1.236.148,2.472.24,4" transform="translate(-821.858 -1026.532)" fill="#007b80"/><path d="M895.449,1029.353v-2.681c8.486-.588,17.817,7.294,17.545,17.52h-2.729c-.943-8.912-5.848-13.864-14.816-14.839" transform="translate(-821.858 -1026.532)" fill="#007b80"/><path d="M824.7,1060.423h-2.828c-.351-8.929,7.468-17.749,17.52-17.6v2.865a14.866,14.866,0,0,0-14.692,14.736" transform="translate(-821.858 -1026.532)" fill="#007b80"/><path d="M895.446,1035.37v-2.8c5.1-.526,11.783,4.358,11.691,11.608h-2.865a9.106,9.106,0,0,0-2.623-6.182,8.968,8.968,0,0,0-6.2-2.628" transform="translate(-821.858 -1026.532)" fill="#007b80"/><path d="M830.533,1060.426h-2.771c-.343-6.171,5.429-11.986,11.642-11.673v2.777c-5.284.578-8.264,3.505-8.871,8.9" transform="translate(-821.858 -1026.532)" fill="#007b80"/></svg>