<svg xmlns="http://www.w3.org/2000/svg" width="80.633" height="80.196" viewBox="0 0 80.633 80.196"><path d="M122.145,1114.843v2.587h-.769q-5.251,0-10.5,0a3.9,3.9,0,0,1-4.221-4.233q0-7.76,0-15.52v-.918h-2.585v.819q0,6.507,0,13.013a3.915,3.915,0,0,1-4.285,4.253H97.61a19.423,19.423,0,0,1-1.131,2.3A6.08,6.08,0,0,1,91.244,1120q-9.129.055-18.259.005a6.455,6.455,0,0,1-2.209-12.5,1.55,1.55,0,0,0,.738-.542,10.485,10.485,0,0,1,8.636-5.039c.16-.014.321-.02.482-.033a.611.611,0,0,0,.125-.057c.012-.2.038-.44.038-.675,0-5.631,0-11.262.013-16.893a.953.953,0,0,0-.581-.988,3.639,3.639,0,0,1-2-3.359,3.693,3.693,0,0,1,2.01-3.362c.35-.2.58-.345.577-.824-.025-4.068-.014-8.137-.016-12.205,0-.1-.018-.209-.038-.416H79.89q-5.211,0-10.423,0a3.892,3.892,0,0,1-4.182-4.189q-.008-6.185,0-12.367a3.883,3.883,0,0,1,4.157-4.133c2.289-.006,4.578.018,6.867-.022a1.571,1.571,0,0,0,1.012-.448,6.439,6.439,0,0,1,9.545.007,1.571,1.571,0,0,0,1.016.441c2.315.039,4.632.013,6.948.023a3.875,3.875,0,0,1,4.063,4.065c.012,1.589.01,3.179.018,4.768,0,.047.039.094.094.218.363,0,.76-.006,1.156,0a3.862,3.862,0,0,1,3.9,3.9c.024,2.263.006,4.526.007,6.79v.921h2.585v-.811q0-5.132,0-10.265c0-2.879,1.506-4.4,4.357-4.419.238,0,.476,0,.813,0,0-1.2,0-2.35,0-3.5a3.909,3.909,0,0,1,4.275-4.259q12.523,0,25.047,0a3.908,3.908,0,0,1,4.288,4.246q.006,4.85,0,9.7a3.891,3.891,0,0,1-4.134,4.158c-2.371.007-4.741.024-7.11-.014a.874.874,0,0,0-1.012.741c-.479,1.569-.953,3.145-1.563,4.665a10.489,10.489,0,0,1-1.313,1.869,1.5,1.5,0,0,0-.363.707q-.036,4.93,0,9.862a1,1,0,0,0,.444.709,3.869,3.869,0,0,1,.017,6.88c-.2.112-.456.355-.458.541-.031,2.553-.021,5.106-.021,7.719a22.909,22.909,0,0,1,15.992,7.987l-5.227,5.476c-3.236-3.695-7.173-5.815-12.1-5.8-4.892.014-8.8,2.128-12.019,5.805l-5.228-5.48a22.9,22.9,0,0,1,15.99-7.986c0-2.611.007-5.163-.014-7.716,0-.159-.187-.335-.32-.47q-.918-.932-1.857-1.841c-.153-.148-.347-.345-.53-.354-.805-.038-1.612-.016-2.446-.016-1.069,7.789-5.361,12.793-12.929,15.125v.718q0,8,0,16c0,1.374.4,1.777,1.779,1.777q5.089,0,10.18,0Zm-24.652-2.635a1.608,1.608,0,0,0,.22.041c.7,0,1.4.01,2.1.006,1.217-.006,1.663-.442,1.666-1.646q.008-4.484,0-8.967v-5.3c-7.55-2.3-11.862-7.312-12.934-15.121-.789,0-1.544-.037-2.292.021a1.375,1.375,0,0,0-.721.435,13.236,13.236,0,0,1-1.564,1.576,1.106,1.106,0,0,0-.6,1.065c.017,5.709.011,11.418.011,17.127v.738c.3.088.551.161.8.24a9.027,9.027,0,0,1,4.76,3.031,3.959,3.959,0,0,0,3.134,1.775c2.89.292,4.613,2.2,5.412,4.982m28.182-56.856c.763,2.278,1.5,4.525,2.28,6.755a4.167,4.167,0,0,0,.692.958,4.128,4.128,0,0,0,.642-.92q1.078-3.084,2.074-6.2a.739.739,0,0,1,.845-.61c2.989.024,5.978.015,8.967.011,1.22,0,1.669-.441,1.671-1.641q.008-4.809,0-9.617c0-1.222-.439-1.672-1.638-1.672q-12.561,0-25.122,0c-1.253,0-1.676.436-1.678,1.714q0,4.647,0,9.294c0,1.58.349,1.923,1.956,1.923h9.311m-36.989,54.955c-.11-.272-.214-.488-.286-.713a6.975,6.975,0,0,0-4.71-4.611c-4.292-1.464-8.265.2-10.4,4.286a1.063,1.063,0,0,1-.676.416,3.892,3.892,0,0,0,.784,7.744q4.117,0,8.234,0c3.175,0,6.351.024,9.525-.012a3.674,3.674,0,0,0,3.536-2.369,3.6,3.6,0,0,0-.669-4.058,3.662,3.662,0,0,0-4.1-1.1c-.4.128-.8.272-1.236.419m33.481-31.676c.789,0,1.518.043,2.238-.022a1.531,1.531,0,0,0,.788-.457c.561-.524,1.039-1.149,1.644-1.609a.959.959,0,0,0,.508-.871c-.018-3.231,0-6.462-.026-9.693a1.639,1.639,0,0,0-.372-.784,10.875,10.875,0,0,1-1.308-1.872c-.617-1.545-1.1-3.146-1.591-4.737a.787.787,0,0,0-.9-.661c-2.395.031-4.791.019-7.186.012a3.89,3.89,0,0,1-4.136-4.152c0-1.178,0-2.355,0-3.606-.26,0-.441,0-.623,0-1.592-.019-1.961.34-1.962,1.915q0,3.07,0,6.14v5.273c7.541,2.308,11.842,7.3,12.93,15.124m-23.272-24.569c0,1.7,0,3.288,0,4.874a3.9,3.9,0,0,1-4.2,4.175q-5.208.008-10.416,0h-.9c0,4.333-.006,8.557.018,12.781,0,.194.245.405.41.576q.854.883,1.736,1.74c.17.164.379.391.58.4.8.047,1.606.019,2.421.019,1.081-7.833,5.4-12.839,12.928-15.122,0-2.723.014-5.441-.008-8.158a1.247,1.247,0,0,0-1.284-1.284c-.4-.024-.8,0-1.289,0m-7.948,6.422c-.12-3.966-4.356-7.7-8.77-7.712a8.883,8.883,0,0,0-8.957,7.712Zm2.727.039c.455,0,.88.018,1.3,0a1.262,1.262,0,0,0,1.322-1.329q.024-6.417,0-12.836a1.179,1.179,0,0,0-1.15-1.317c-2.225-.055-4.453-.02-6.712-.02a6.7,6.7,0,0,1-1.929,6.011,11.894,11.894,0,0,1,7.163,9.495m-23.217-.008c1.531-5.514,2.111-6.283,7.171-9.533a6.65,6.65,0,0,1-1.892-5.964c-2.263,0-4.491-.036-6.716.02a1.18,1.18,0,0,0-1.145,1.322q-.012,6.419,0,12.837a1.222,1.222,0,0,0,1.17,1.307,11.446,11.446,0,0,0,1.409.011m71.809,39.147a19.694,19.694,0,0,0-27.287,0l1.531,1.608c8.134-6.187,16.163-6.179,24.24,0l1.516-1.611m-42.118-21.1h10.421c-.208-1.743-.407-3.411-.607-5.082h-9.21c-.2,1.676-.4,3.345-.6,5.082m9.826,7.8c.2-1.711.388-3.377.585-5.09H100.15c.2,1.738.4,3.407.6,5.09Zm-27.912-36.187a3.877,3.877,0,1,0-3.848-3.944,3.9,3.9,0,0,0,3.848,3.944m16.026,23.283c-1.7,0-3.344-.008-4.983.012a.673.673,0,0,0-.511.263,12.323,12.323,0,0,0-1.35,4.849h6.328c.172-1.7.339-3.362.516-5.124m-.513,7.812H91.233a12.954,12.954,0,0,0,1.28,4.694.759.759,0,0,0,.5.406c1.687.03,3.376.018,5.07.018-.175-1.754-.341-3.412-.511-5.118m21.909-2.672a12.835,12.835,0,0,0-1.313-4.772.67.67,0,0,0-.455-.35c-1.69-.026-3.381-.016-5.092-.016.179,1.76.35,3.436.524,5.138Zm-6.856,7.789c1.721,0,3.412.01,5.1-.016a.678.678,0,0,0,.447-.364,12.71,12.71,0,0,0,1.3-4.749h-6.333c-.171,1.7-.34,3.377-.516,5.129m-11.1,2.619a10.384,10.384,0,0,0,2.24,4.326,1.932,1.932,0,0,0,3.148.012,10.727,10.727,0,0,0,2.3-4.338Zm-.044-18.159h7.742a10.748,10.748,0,0,0-2.358-4.394,1.888,1.888,0,0,0-3.03,0,10.584,10.584,0,0,0-2.354,4.4m-1.126-4.222a14.224,14.224,0,0,0-5.937,4.246c1.417,0,2.625.016,3.831-.016a.785.785,0,0,0,.6-.346c.519-1.251.988-2.522,1.509-3.884m-.008,26.572c-.513-1.339-.989-2.609-1.5-3.865a.626.626,0,0,0-.444-.339c-1.273-.027-2.546-.015-4-.015a14.015,14.015,0,0,0,5.941,4.219m10,.017a13.943,13.943,0,0,0,5.927-4.236c-1.435,0-2.689-.016-3.942.017a.7.7,0,0,0-.493.381c-.5,1.236-.973,2.489-1.492,3.838m5.875-22.344c-1.321-1.84-4.448-3.982-5.822-4.1.467,1.214.935,2.466,1.439,3.7a.7.7,0,0,0,.493.38c1.253.033,2.507.018,3.89.018m-32.853,9.045a1.286,1.286,0,1,0-1.278,1.3,1.3,1.3,0,0,0,1.278-1.3m45.28,1.3a1.287,1.287,0,1,0-1.313-1.259,1.3,1.3,0,0,0,1.313,1.259" transform="translate(-65.281 -1039.833)" fill="#007b80"/><path d="M123.223,1112.864l-5.368-5.653a13.661,13.661,0,0,1,21.571-.03l-5.384,5.672a6.832,6.832,0,0,0-5.417-2.967,6.761,6.761,0,0,0-5.4,2.978m12.564-5.6c-3.368-3.613-11.029-3.609-14.292-.018l1.875,1.79c3.479-2.346,7.045-2.34,10.646.087l1.771-1.859" transform="translate(-65.281 -1039.833)" fill="#007b80"/><path d="M132.5,1116.156a3.876,3.876,0,1,1-3.815-3.9,3.9,3.9,0,0,1,3.815,3.9m-2.589,0a1.286,1.286,0,1,0-1.309,1.265,1.3,1.3,0,0,0,1.309-1.265" transform="translate(-65.281 -1039.833)" fill="#007b80"/></svg>