<svg xmlns="http://www.w3.org/2000/svg" width="82.268" height="82.262" viewBox="0 0 82.268 82.262"><path d="M581.056,1043.722c.588-1.606,1.747-2.156,3.432-2.151,12.182.04,24.365.021,36.546.021h1.152c0-.848,0-1.639,0-2.429a4.12,4.12,0,0,1,4.391-4.437q7.953-.008,15.9,0a4.127,4.127,0,0,1,4.39,4.372c.012.8,0,1.594,0,2.49,1.468,0,2.853.014,4.235-.02.186,0,.39-.238.543-.4a2.811,2.811,0,0,1,2.131-.96c2.249-.008,4.5-.023,6.747.006a2.711,2.711,0,0,1,2.78,2.812q.027,4.055,0,8.111a2.643,2.643,0,0,1-2.65,2.757c-2.327.052-4.657.021-6.986.01a2.7,2.7,0,0,1-2.044-.961,1.057,1.057,0,0,0-.634-.368c-1.334-.034-2.668-.016-4.122-.016,0,.736,0,1.42,0,2.106,0,2.812-1.094,4.149-3.861,4.741a1.845,1.845,0,0,0-.262.11v3.357c0,2.129-.64,2.958-2.7,3.458v39.651c.226.017.455.048.683.05,1.152.007,2.3-.014,3.454.01a5.43,5.43,0,0,1,5.415,5.35c.048.934.021,1.874.01,2.811a3.031,3.031,0,0,1-2.043,2.785H621.543a3.077,3.077,0,0,1-2.1-3.461,3.279,3.279,0,0,0,0-.642c-.427-4.386,2.313-7.262,6.813-6.863.893.08,1.8.012,2.741.012v-39.717c-2-.44-2.686-1.3-2.69-3.317,0-.963-.023-1.928.008-2.89.017-.489-.122-.695-.637-.78a4.036,4.036,0,0,1-3.494-4.145c-.008-.85,0-1.7,0-2.579H601.622c0,4.087,0,8.124.01,12.163a.663.663,0,0,0,.236.449c1.432,1.117,2.9,2.186,4.311,3.331q5.923,4.8,11.8,9.664a3.915,3.915,0,0,1,1.349,4.4,4.075,4.075,0,0,1-6.617,1.892c-1.987-1.586-3.942-3.215-5.91-4.823q-3.26-2.665-6.531-5.337c-.192.143-.345.247-.488.363q-5.721,4.674-11.44,9.352c-2.935,2.4-5.76,1.732-7.226-1.729-.008-.021-.043-.031-.065-.045v-1.767a6.111,6.111,0,0,1,2.22-2.956c3.977-3.211,7.915-6.468,11.876-9.7,1.035-.845,2.071-1.7,3.168-2.452a1.048,1.048,0,0,0,.575-1c-.02-3.692-.011-7.387-.011-11.079v-.78h-.942c-4.443,0-8.886-.046-13.328.023a3.314,3.314,0,0,1-3.558-2.106Zm53.419,12.942c2.624,0,5.247.007,7.87,0,1.294,0,1.775-.46,1.777-1.722q.013-7.87,0-15.74c0-1.269-.486-1.736-1.762-1.737q-7.828,0-15.66,0c-1.311,0-1.775.472-1.776,1.8q0,7.788,0,15.58c0,1.368.449,1.816,1.842,1.818,2.569.008,5.139,0,7.709,0m2.751,9.641h-5.362v39.677h5.362Zm-15.035,47.883h24.627c0-1.07.082-2.091-.02-3.091a2.54,2.54,0,0,0-2.557-2.312q-9.716-.031-19.433,0a2.635,2.635,0,0,0-2.608,2.544c-.045.934-.009,1.869-.009,2.859m-37.1-31.292a15.393,15.393,0,0,0,1.41-.9q6.312-5.158,12.606-10.337a1.48,1.48,0,0,1,2.274-.006q3.048,2.49,6.086,4.99c2.276,1.87,4.545,3.746,6.828,5.606a1.392,1.392,0,0,0,2.248-.312c.338-.661.156-1.237-.613-1.867q-7.268-5.955-14.541-11.9c-.9-.739-1.4-.719-2.341.051q-6.931,5.667-13.863,11.338a3.771,3.771,0,0,0-1.008.9,1.878,1.878,0,0,0-.212,1.381c.16.413.7.678,1.126,1.057m75.445-39.907h-6.781v8.126h6.781ZM629.1,1063.441h10.869v-3.977H629.1Zm-6.96-13.673v-5.433a8.1,8.1,0,0,1-1.318-.01,3.229,3.229,0,0,0-3.476,1.6c-.923,1.323-2.047,2.5-3.167,3.848Zm-15.226-5.433c-1.473,0-2.747-.038-4.014.023a1.671,1.671,0,0,0-1.054.513c-1.238,1.405-2.423,2.859-3.621,4.3-.143.171-.258.366-.451.646a15.311,15.311,0,0,1,2.2.016,3.441,3.441,0,0,0,3.87-1.783,12.281,12.281,0,0,1,1.271-1.548l1.8-2.165m-17.431,5.48a13.826,13.826,0,0,1,2.144.016,3.8,3.8,0,0,0,4.126-1.92c.817-1.223,1.864-2.293,2.928-3.575-1.489,0-2.786-.03-4.082.02a1.442,1.442,0,0,0-.926.439c-.991,1.117-1.932,2.281-2.888,3.428-.4.482-.795.971-1.3,1.592m25.658-5.478c-1.576,0-2.957-.018-4.336.017a1.051,1.051,0,0,0-.641.381c-.787.907-1.545,1.84-2.314,2.761l-1.936,2.318c1.584,0,2.964.01,4.343-.012a.806.806,0,0,0,.533-.264c1.412-1.669,2.808-3.35,4.351-5.2m-24.731.066H583.84v5.412a8.37,8.37,0,0,0,1.148-.011c.4-.059.921-.079,1.144-.332,1.433-1.622,2.8-3.3,4.274-5.069m56.517,5.348h4v-5.374h-4Z" transform="translate(-581.056 -1034.722)" fill="#007b80"/><path d="M587.322,1116.984a3.154,3.154,0,0,1-2.164-3.419c.052-6.824.041-13.648.005-20.472a3.838,3.838,0,0,1,1.4-3.149c3.891-3.435,7.73-6.931,11.589-10.4a2.783,2.783,0,0,1,4.2-.008q5.912,5.312,11.823,10.623a3.194,3.194,0,0,1,1.155,2.527q-.023,10.638,0,21.275a2.972,2.972,0,0,1-2.138,3.026Zm4.688-2.766V1113.2q0-6.1,0-12.2a2.877,2.877,0,0,1,3.167-3.2q3.011-.021,6.022,0a2.86,2.86,0,0,1,3.155,3.2q0,6.183,0,12.366v.846h8.168a3.757,3.757,0,0,0,.046-.412q0-10.438-.014-20.877a1.342,1.342,0,0,0-.428-.865c-1.869-1.723-3.765-3.418-5.654-5.118q-3.1-2.787-6.191-5.564a2.337,2.337,0,0,0-.248.165c-3.9,3.508-7.8,7.009-11.68,10.544a1.646,1.646,0,0,0-.414,1.111c-.024,6.718-.017,13.436-.017,20.154v.872Zm2.743-.021h6.819v-13.654c-2.021,0-4,.025-5.969-.013-.651-.013-.873.153-.867.84.037,3.21.017,6.422.017,9.632Z" transform="translate(-581.056 -1034.722)" fill="#007b80"/><path d="M634.5,1048.42c-1.337,0-2.674.018-4.011-.006a2.714,2.714,0,0,1-2.823-2.836c-.016-.855-.019-1.71,0-2.565a2.729,2.729,0,0,1,2.79-2.8q4.051-.042,8.1,0a2.685,2.685,0,0,1,2.8,2.693c.042.934.041,1.873,0,2.806a2.678,2.678,0,0,1-2.772,2.715H634.5m4.079-5.433h-8.118v2.657h8.118Z" transform="translate(-581.056 -1034.722)" fill="#007b80"/></svg>