<svg xmlns="http://www.w3.org/2000/svg" width="75.091" height="70.257" viewBox="0 0 75.091 70.257"><path d="M404.867,1100.778a16.025,16.025,0,0,1,2.543.748,5.588,5.588,0,0,1,3.423,5.1,16.493,16.493,0,0,1-.34,4.708,5.551,5.551,0,0,1-4.954,4.051,8.667,8.667,0,0,1-1.249.048q-30.927,0-61.853.012c-2.8,0-4.908-1.087-6.093-3.66a10.274,10.274,0,0,1-.463-5.235,5.866,5.866,0,0,1,4.6-5.44,8.8,8.8,0,0,1,2.091-.2q18.493-.018,36.987-.009h1.073v-1.551q0-3.753,0-7.505c0-1.506.313-1.812,1.844-1.815q2.268,0,4.536,0h.868v-.914q0-4.068,0-8.133c0-1.508.352-1.864,1.825-1.864q4.846,0,9.7,0c1.48,0,1.824.348,1.825,1.858q0,4.068,0,8.133v.92c.75,0,1.395-.005,2.041,0,1.179.013,1.59.419,1.593,1.611.008,2.92,0,5.839,0,8.758Zm-31.513,2.572H354.117c-4.04,0-8.08-.011-12.121.007a3.406,3.406,0,0,0-3.612,2.816,13.549,13.549,0,0,0,.007,4.036c.291,1.848,1.838,2.83,4.016,2.83q30.966,0,61.932,0a6.857,6.857,0,0,0,.7-.023,3.64,3.64,0,0,0,3.442-3.75c.011-.546-.035-1.1.009-1.64.2-2.534-1.534-4.326-4.252-4.306-10.295.074-20.592.03-30.887.03m17-13.378h8.385v-8.385h-8.385Zm-7.276,10.869h8.406v-8.358h-8.406Zm10.888.006h8.388v-8.352h-8.388Z" transform="translate(-335.763 -1045.188)" fill="#007b80"/><path d="M345.392,1061.619c-1.414-1.412-2.872-2.864-4.325-4.32-.945-.946-.949-1.49-.011-2.432q2.234-2.247,4.478-4.481c.862-.857,1.46-.852,2.332.013,1.314,1.3,2.638,2.6,3.917,3.935a.874.874,0,0,0,1.207.19c1.1-.526,2.233-.977,3.41-1.481,0-2.009,0-4.068,0-6.125,0-1.318.41-1.724,1.736-1.727q3.127,0,6.256,0c1.288,0,1.7.408,1.7,1.675,0,2.057,0,4.116,0,6.161,1.308.571,2.579,1.151,3.875,1.664.165.065.512-.156.69-.33,1.342-1.312,2.659-2.649,3.991-3.972.88-.874,1.444-.875,2.321,0q2.275,2.259,4.533,4.535c.867.875.863,1.444-.013,2.321-1.471,1.476-2.949,2.943-4.371,4.362.525,1.33,1,2.6,1.537,3.831a.938.938,0,0,0,.728.352c1.9.029,3.806.011,5.709.018,1.177,0,1.6.416,1.6,1.6q.02,3.244,0,6.489c-.008,1.157-.46,1.588-1.638,1.594-1.877.01-3.755.02-5.631-.008a.78.78,0,0,0-.9.614,27.489,27.489,0,0,1-1.166,2.806.862.862,0,0,0,.185,1.2c1.321,1.257,2.594,2.567,3.881,3.86.967.97.961,1.5-.024,2.489q-2.211,2.213-4.427,4.42c-.884.88-1.454.883-2.326.014-1.477-1.47-2.945-2.948-4.377-4.382-1.315.522-2.578,1-3.81,1.542a.928.928,0,0,0-.355.718c-.029,1.876-.014,3.752-.017,5.629,0,1.274-.367,1.658-1.6,1.664q-3.246.012-6.491,0c-1.189-.006-1.591-.413-1.6-1.6-.007-1.877-.027-3.756.013-5.631a.822.822,0,0,0-.677-.931,29.891,29.891,0,0,1-2.875-1.2.725.725,0,0,0-1,.17c-1.327,1.364-2.68,2.7-4.03,4.042-.852.846-1.423.852-2.264.017q-2.331-2.316-4.644-4.646a1.3,1.3,0,0,1,0-2.152c1.356-1.373,2.717-2.741,4.1-4.087a.722.722,0,0,0,.181-.995,26,26,0,0,1-1.174-2.8.917.917,0,0,0-1.041-.756c-1.823.046-3.649.021-5.473.014-1.279,0-1.7-.41-1.7-1.678q-.016-3.206,0-6.413c.008-1.2.413-1.593,1.6-1.6,1.9-.006,3.806-.017,5.709.01a.742.742,0,0,0,.836-.593c.43-1.2.932-2.363,1.431-3.6m33.763,23.484q-2.1-2.1-4.2-4.2c-.749-.753-.735-1.123-.294-2.079.673-1.458,1.3-2.943,1.856-4.449.391-1.063.63-1.323,1.792-1.327,1.7-.005,3.389,0,5.084,0h.808V1068.2c-1.978,0-3.9,0-5.825,0-1.314,0-1.474-.207-1.915-1.461a40.908,40.908,0,0,0-1.733-4.163c-.534-1.111-.551-1.443.338-2.334,1.38-1.38,2.762-2.76,4.065-4.06l-3.427-3.433c-1.365,1.367-2.777,2.79-4.2,4.2-.736.732-1.1.718-2.013.305-1.535-.692-3.1-1.329-4.672-1.922a1.434,1.434,0,0,1-1.134-1.467c.013-.938,0-1.877,0-2.815,0-1.114,0-2.229,0-3.369h-4.841v.882c0,1.695.006,3.389,0,5.083-.007,1.1-.289,1.347-1.32,1.72-1.462.53-2.91,1.113-4.312,1.783-1.158.555-1.418.589-2.328-.318-1.38-1.379-2.757-2.759-4.09-4.093-1.158,1.159-2.27,2.275-3.432,3.44,1.369,1.363,2.792,2.774,4.207,4.194a1.452,1.452,0,0,1,.316,2.019c-.687,1.509-1.334,3.039-1.921,4.589-.37.977-.57,1.208-1.62,1.213-1.7.007-3.39,0-5.084,0h-.962v4.844c1.923,0,3.8,0,5.669,0,1.466,0,1.639.208,2.1,1.552a34.5,34.5,0,0,0,1.673,4.019c.591,1.2.616,1.492-.347,2.455-1.358,1.359-2.717,2.716-3.982,3.982l3.441,3.438c1.345-1.353,2.753-2.78,4.173-4.195a1.387,1.387,0,0,1,1.951-.312q2.3,1.039,4.66,1.951c.906.35,1.186.608,1.206,1.569.017.809,0,1.617,0,2.426v3.687h4.841v-.882c0-1.773.007-3.544,0-5.317a1.427,1.427,0,0,1,1.122-1.469q2.4-.9,4.734-1.975a1.475,1.475,0,0,1,1.9.27c1.022,1.042,2.076,2.053,3.087,3.106a16.508,16.508,0,0,1,1.055,1.33l3.573-3.577" transform="translate(-335.763 -1045.188)" fill="#007b80"/><path d="M373.367,1104.571a3.63,3.63,0,0,1,3.633,3.615,3.637,3.637,0,0,1-7.274-.008,3.634,3.634,0,0,1,3.641-3.607m1.18,3.621a1.184,1.184,0,1,0-2.367-.025,1.184,1.184,0,0,0,2.367.025" transform="translate(-335.763 -1045.188)" fill="#007b80"/><path d="M381.866,1108.194a3.613,3.613,0,0,1,7.226-.023,3.613,3.613,0,1,1-7.226.023m4.8,0a1.235,1.235,0,0,0-1.182-1.21,1.252,1.252,0,0,0-1.215,1.185,1.207,1.207,0,0,0,1.19,1.191,1.174,1.174,0,0,0,1.207-1.166" transform="translate(-335.763 -1045.188)" fill="#007b80"/><path d="M352.776,1108.162a3.631,3.631,0,0,1-7.262.042,3.631,3.631,0,0,1,7.262-.042m-2.458-.016a1.2,1.2,0,0,0-1.214-1.166,1.219,1.219,0,0,0-1.156,1.233,1.177,1.177,0,0,0,1.224,1.145,1.15,1.15,0,0,0,1.146-1.212" transform="translate(-335.763 -1045.188)" fill="#007b80"/><path d="M364.86,1108.213a3.613,3.613,0,1,1-3.577-3.638,3.57,3.57,0,0,1,3.577,3.638m-2.4-.069a1.26,1.26,0,0,0-1.239-1.161,1.238,1.238,0,0,0-1.159,1.232,1.177,1.177,0,0,0,1.23,1.143,1.208,1.208,0,0,0,1.168-1.214" transform="translate(-335.763 -1045.188)" fill="#007b80"/><path d="M397.6,1104.572a3.6,3.6,0,0,1,3.605,3.627,3.628,3.628,0,1,1-3.605-3.627m1.179,3.576a1.232,1.232,0,0,0-1.225-1.167,1.2,1.2,0,0,0-1.146,1.229,1.148,1.148,0,0,0,1.208,1.15,1.191,1.191,0,0,0,1.163-1.212" transform="translate(-335.763 -1045.188)" fill="#007b80"/><path d="M374.556,1070.7a13.308,13.308,0,1,1-13.258-13.365,13.323,13.323,0,0,1,13.258,13.365m-13.322,10.817a10.892,10.892,0,1,0-10.888-10.9,10.9,10.9,0,0,0,10.888,10.9" transform="translate(-335.763 -1045.188)" fill="#007b80"/><path d="M361.292,1060.962a9.687,9.687,0,1,1-9.735,9.653,9.682,9.682,0,0,1,9.735-9.653m7.208,9.763a7.244,7.244,0,1,0-7.435,7.152,7.229,7.229,0,0,0,7.435-7.152" transform="translate(-335.763 -1045.188)" fill="#007b80"/></svg>